<svg width="124" height="26" viewBox="0 0 124 26" fill="none" xmlns="http://www.w3.org/2000/svg">
<g clip-path="url(#clip0_5707_8584)">
<path d="M77.6841 6.66939L72.4598 6.18486L70.3846 1.36598C70.2393 1.02856 69.7609 1.02856 69.6156 1.36598L67.5404 6.18482L62.3161 6.66939C61.9503 6.7033 61.8025 7.1583 62.0784 7.40076L66.0202 10.8635L64.8666 15.9818C64.7858 16.3402 65.1729 16.6214 65.4888 16.4339L70.0001 13.7551L74.5114 16.4339C74.8273 16.6214 75.2143 16.3402 75.1336 15.9818L73.98 10.8635L77.9218 7.40076C78.1977 7.1583 78.0499 6.7033 77.6841 6.66939Z" fill="#00730C"/>
<path d="M71.1392 3.11833L70.3846 1.36598C70.2392 1.02856 69.7608 1.02856 69.6156 1.36598L67.5403 6.18482L62.3161 6.66939C61.9503 6.7033 61.8025 7.1583 62.0784 7.40076L66.0202 10.8635L64.8666 15.9818C64.7858 16.3402 65.1729 16.6214 65.4888 16.4339L66.0892 16.0773C67.0735 9.70545 69.8408 5.02802 71.1392 3.11833Z" fill="#00730C"/>
</g>
<g clip-path="url(#clip1_5707_8584)">
<path d="M17.6841 6.66939L12.4598 6.18486L10.3846 1.36598C10.2393 1.02856 9.76088 1.02856 9.61561 1.36598L7.54037 6.18482L2.3161 6.66939C1.95028 6.7033 1.80247 7.1583 2.07845 7.40076L6.02017 10.8635L4.86662 15.9818C4.78584 16.3402 5.17291 16.6214 5.48877 16.4339L10.0001 13.7551L14.5114 16.4339C14.8273 16.6214 15.2143 16.3402 15.1336 15.9818L13.98 10.8635L17.9218 7.40076C18.1977 7.1583 18.0499 6.7033 17.6841 6.66939Z" fill="#00730C"/>
<path d="M11.1392 3.11833L10.3846 1.36598C10.2392 1.02856 9.76085 1.02856 9.61557 1.36598L7.54033 6.18482L2.3161 6.66939C1.95028 6.7033 1.80247 7.1583 2.07845 7.40076L6.02017 10.8635L4.86662 15.9818C4.78584 16.3402 5.17291 16.6214 5.48877 16.4339L6.0892 16.0773C7.07354 9.70545 9.84081 5.02802 11.1392 3.11833Z" fill="#00730C"/>
</g>
<g clip-path="url(#clip2_5707_8584)">
<path d="M107.684 6.66939L102.46 6.18486L100.385 1.36598C100.239 1.02856 99.7609 1.02856 99.6156 1.36598L97.5404 6.18482L92.3161 6.66939C91.9503 6.7033 91.8025 7.1583 92.0784 7.40076L96.0202 10.8635L94.8666 15.9818C94.7858 16.3402 95.1729 16.6214 95.4888 16.4339L100 13.7551L104.511 16.4339C104.827 16.6214 105.214 16.3402 105.134 15.9818L103.98 10.8635L107.922 7.40076C108.198 7.1583 108.05 6.7033 107.684 6.66939Z" fill="#00730C"/>
<path d="M101.139 3.11833L100.385 1.36598C100.239 1.02856 99.7608 1.02856 99.6156 1.36598L97.5403 6.18482L92.3161 6.66939C91.9503 6.7033 91.8025 7.1583 92.0784 7.40076L96.0202 10.8635L94.8666 15.9818C94.7858 16.3402 95.1729 16.6214 95.4888 16.4339L96.0892 16.0773C97.0735 9.70545 99.8408 5.02802 101.139 3.11833Z" fill="#00730C"/>
</g>
<g clip-path="url(#clip3_5707_8584)">
<path d="M47.6841 6.66939L42.4598 6.18486L40.3846 1.36598C40.2393 1.02856 39.7609 1.02856 39.6156 1.36598L37.5404 6.18482L32.3161 6.66939C31.9503 6.7033 31.8025 7.1583 32.0784 7.40076L36.0202 10.8635L34.8666 15.9818C34.7858 16.3402 35.1729 16.6214 35.4888 16.4339L40.0001 13.7551L44.5114 16.4339C44.8273 16.6214 45.2143 16.3402 45.1336 15.9818L43.98 10.8635L47.9218 7.40076C48.1977 7.1583 48.0499 6.7033 47.6841 6.66939Z" fill="#00730C"/>
<path d="M41.1392 3.11833L40.3846 1.36598C40.2392 1.02856 39.7608 1.02856 39.6156 1.36598L37.5403 6.18482L32.3161 6.66939C31.9503 6.7033 31.8025 7.1583 32.0784 7.40076L36.0202 10.8635L34.8666 15.9818C34.7858 16.3402 35.1729 16.6214 35.4888 16.4339L36.0892 16.0773C37.0735 9.70545 39.8408 5.02802 41.1392 3.11833Z" fill="#00730C"/>
</g>
<defs>
<clipPath id="clip0_5707_8584">
<rect width="20" height="20" fill="white" transform="translate(60 0.5)"/>
</clipPath>
<clipPath id="clip1_5707_8584">
<rect width="20" height="20" fill="white" transform="translate(0 0.5)"/>
</clipPath>
<clipPath id="clip2_5707_8584">
<rect width="20" height="20" fill="white" transform="translate(90 0.5)"/>
</clipPath>
<clipPath id="clip3_5707_8584">
<rect width="20" height="20" fill="white" transform="translate(30 0.5)"/>
</clipPath>
</defs>
</svg>
