<svg width="70" height="70" viewBox="0 0 70 70" fill="none" xmlns="http://www.w3.org/2000/svg">
<path d="M53.9372 67.8121C53.4239 67.4566 52.2996 66.6936 50.7407 65.7111L55.005 63.0286C55.0276 63.0144 55.0496 62.9993 55.0711 62.9835C56.6741 61.8037 57.9128 60.1968 58.6458 58.3464L61.2667 51.7351C61.3736 51.4654 61.369 51.1643 61.2539 50.898C61.1388 50.6318 60.9226 50.4221 60.653 50.3152L57.6028 49.1061L61.2304 39.9552C61.364 40.0083 61.5066 40.0345 61.6503 40.0323C61.7939 40.0302 61.9357 39.9997 62.0676 39.9427C62.1995 39.8857 62.3188 39.8033 62.4188 39.7001C62.5188 39.597 62.5974 39.4751 62.6503 39.3415L67.4872 27.1403C67.5941 26.8706 67.5895 26.5696 67.4744 26.3033C67.3593 26.037 67.1432 25.8274 66.8735 25.7205L61.7896 23.7051C61.52 23.5982 61.2189 23.6028 60.9526 23.7179C60.6863 23.833 60.4767 24.0492 60.3698 24.3189L55.533 36.5202C55.4261 36.7898 55.4307 37.0909 55.5458 37.3572C55.6609 37.6235 55.877 37.8331 56.1467 37.94L52.519 47.0909L49.4687 45.8816C49.199 45.7747 48.8979 45.7793 48.6317 45.8944C48.3654 46.0095 48.1557 46.2257 48.0488 46.4953L45.5913 52.6945C44.7583 54.8088 44.6209 57.1336 45.1991 59.3313L45.6713 62.7046C39.9543 59.5238 32.3925 56.0438 26.25 55.7398V50.8402L32.2693 46.0601C33.0897 46.1568 33.9151 46.2051 34.7412 46.2048C35.4445 46.2055 36.1473 46.169 36.8467 46.0954C40.8749 45.666 43.9674 43.9845 45.7897 41.2326C50.0064 34.8649 47.2604 23.2046 47.1414 22.7113C47.0767 22.4426 46.9125 22.2084 46.6821 22.0558C46.4516 21.9032 46.1719 21.8435 45.8992 21.8887C45.3987 21.9717 33.5915 23.995 29.375 30.3626C27.5527 33.1145 27.2115 36.6181 28.3887 40.4945C28.8556 42.0099 29.4937 43.4673 30.2906 44.8383L26.25 48.0471V28.0424C27.6693 27.3398 29.0041 26.4779 30.2285 25.4734C33.3502 22.8914 35 19.782 35 16.4813C35 8.84393 26.2727 0.638069 25.9012 0.292581C25.6988 0.104224 25.4326 -0.000488281 25.1561 -0.000488281C24.8796 -0.000488281 24.6134 0.104224 24.411 0.292581C22.77 1.87355 21.2623 3.58731 19.9034 5.41639C16.8574 9.51194 15.3125 13.2348 15.3125 16.4813C15.3125 19.782 16.9624 22.8914 20.084 25.4734C21.3084 26.4779 22.6432 27.3398 24.0625 28.0424V49.1408L20.0223 45.9329C20.8192 44.562 21.4573 43.1048 21.9242 41.5894C23.1014 37.7131 22.7603 34.2095 20.9379 31.4576C16.7214 25.0899 4.91449 23.0665 4.41369 22.9837C4.141 22.9384 3.86131 22.9981 3.63085 23.1507C3.40039 23.3034 3.23626 23.5376 3.17146 23.8063C3.05252 24.2996 0.306524 35.9599 4.5232 42.3276C6.34553 45.0795 9.43797 46.7611 13.4663 47.1904C14.1657 47.264 14.8685 47.3005 15.5717 47.2998C16.3978 47.3001 17.2232 47.2518 18.0436 47.1551L24.0625 51.934V55.7776C24.0264 55.7808 23.9896 55.7826 23.9531 55.7863C19.2158 56.26 14.1557 58.4933 8.91406 62.4255C6.73712 64.0547 4.69445 65.856 2.80574 67.8121H0V69.9996H70V67.8121H53.9372ZM42.5888 35.2272L38.6527 34.9841C38.4372 34.9708 38.2304 34.894 38.0585 34.7634C37.8866 34.6328 37.7571 34.4542 37.6865 34.2501L36.397 30.5233L38.4642 29.808L39.5153 32.8457L42.7235 33.0438L42.5888 35.2272ZM34.9651 32.6881L36.2391 37.1588L40.8875 37.1875L40.8738 39.375L35.4051 39.3412C35.1684 39.3398 34.9386 39.2616 34.7501 39.1184C34.5617 38.9752 34.4247 38.7748 34.3599 38.5472L32.8612 33.2879L34.9651 32.6881ZM7.59582 34.1373L10.8041 33.9392L11.8552 30.9016L13.9223 31.6168L12.6328 35.3438C12.5622 35.5479 12.4328 35.7265 12.2608 35.8571C12.0889 35.9878 11.8821 36.0646 11.6666 36.0779L7.73049 36.321L7.59582 34.1373ZM9.44549 40.4683L9.43182 38.2808L14.0803 38.2521L15.3542 33.7814L17.458 34.3809L15.9592 39.6402C15.8943 39.8679 15.7574 40.0683 15.5689 40.2115C15.3805 40.3547 15.1506 40.4329 14.914 40.4343L9.44549 40.4683ZM21.4375 15.5308L25.1562 18.3199L28.875 15.5308L30.1875 17.2808L25.8125 20.5621C25.6232 20.7041 25.3929 20.7808 25.1562 20.7808C24.9196 20.7808 24.6893 20.7041 24.5 20.5621L20.125 17.2808L21.4375 15.5308ZM21.2684 12.9408L22.4818 11.1208L25.1562 12.9038L27.8309 11.1207L29.0443 12.9408L25.763 15.1283C25.5833 15.2481 25.3722 15.312 25.1563 15.312C24.9404 15.312 24.7293 15.2481 24.5496 15.1283L21.2684 12.9408ZM13.125 65.6246C13.125 64.6093 13.5283 63.6356 14.2462 62.9177C14.9641 62.1998 15.9378 61.7965 16.9531 61.7965C17.9684 61.7965 18.9421 62.1998 19.66 62.9177C20.3779 63.6356 20.7812 64.6093 20.7812 65.6246H18.5938C18.5938 65.1895 18.4209 64.7722 18.1132 64.4645C17.8055 64.1568 17.3882 63.984 16.9531 63.984C16.518 63.984 16.1007 64.1568 15.793 64.4645C15.4854 64.7722 15.3125 65.1895 15.3125 65.6246H13.125ZM21.875 63.984C21.875 62.9687 22.2783 61.995 22.9962 61.2771C23.7141 60.5592 24.6878 60.1558 25.7031 60.1558C26.7184 60.1558 27.6921 60.5592 28.41 61.2771C29.1279 61.995 29.5312 62.9687 29.5312 63.984H27.3438C27.3438 63.5488 27.1709 63.1315 26.8632 62.8239C26.5555 62.5162 26.1382 62.3433 25.7031 62.3433C25.268 62.3433 24.8507 62.5162 24.543 62.8239C24.2354 63.1315 24.0625 63.5488 24.0625 63.984H21.875ZM37.1875 65.6246C37.1875 65.1895 37.0146 64.7722 36.707 64.4645C36.3993 64.1568 35.982 63.984 35.5469 63.984C35.1118 63.984 34.6945 64.1568 34.3868 64.4645C34.0791 64.7722 33.9062 65.1895 33.9062 65.6246H31.7188C31.7188 64.6093 32.1221 63.6356 32.84 62.9177C33.5579 62.1998 34.5316 61.7965 35.5469 61.7965C36.5622 61.7965 37.5359 62.1998 38.2538 62.9177C38.9717 63.6356 39.375 64.6093 39.375 65.6246H37.1875ZM58.1801 38.7457L59.1969 39.1487L55.5692 48.2996L54.5524 47.8965L58.1801 38.7457ZM47.6254 53.5004L49.6799 48.3179L58.8301 51.9455L56.6122 57.54C56.0351 58.997 55.063 60.2641 53.8051 61.1989L48.7223 64.3963C48.7029 64.4085 48.684 64.4216 48.6655 64.435C48.4721 64.3191 48.2737 64.2012 48.0729 64.0824L47.3558 58.9605C47.3496 58.9147 47.3405 58.8693 47.3285 58.8246C46.8525 57.0641 46.9564 55.1972 47.6247 53.5004H47.6254Z" fill="#00730C"/>
</svg>
