<svg width="270" height="80" viewBox="0 0 270 80" fill="none" xmlns="http://www.w3.org/2000/svg">
<path d="M58.5334 37.1044L66.6996 21.5144C67.3447 20.2818 67.4738 18.8434 67.0585 17.5156C66.6433 16.1879 65.7177 15.0793 64.4853 14.4339C63.2529 13.7884 61.8146 13.6588 60.4867 14.0736C59.1588 14.4884 58.05 15.4136 57.4041 16.6458L49.2379 32.2358C48.8468 32.9778 48.6405 33.8032 48.6364 34.642C48.6324 35.4807 48.8307 36.3081 49.2146 37.0538L46.6853 41.8841L43.1457 40.1149C42.8954 39.9902 42.6069 39.9658 42.3392 40.0469C42.0716 40.128 41.845 40.3084 41.7061 40.5511L34.9877 52.3075C33.9771 54.0792 33.4333 56.0786 33.4072 58.1181C32.5363 57.7109 31.5865 57.4999 30.625 57.5001C30.5785 57.5001 30.5334 57.5028 30.4869 57.5042C30.244 56.5648 29.6962 55.7326 28.9294 55.1381C28.1627 54.5435 27.2203 54.2202 26.25 54.2189V45.4689H27.3437C30.5335 45.4651 33.5915 44.1963 35.847 41.9408C38.1025 39.6854 39.3712 36.6273 39.375 33.4376V29.0626C39.3738 28.1927 39.0278 27.3588 38.4127 26.7437C37.7976 26.1286 36.9636 25.7825 36.0937 25.7814H27.6172C25.6955 25.7768 23.7996 26.2247 22.0831 27.0888C20.3666 27.9529 18.8776 29.2089 17.7365 30.7552C16.5121 30.3576 15.2327 30.1555 13.9453 30.1564H5.46875C4.59886 30.1575 3.76493 30.5036 3.14983 31.1187C2.53473 31.7338 2.18865 32.5677 2.1875 33.4376V37.8126C2.19126 41.0023 3.46005 44.0604 5.71553 46.3158C7.97101 48.5713 11.029 49.8401 14.2187 49.8439H19.6875V54.3569C18.9303 54.5539 18.2397 54.95 17.6873 55.504C17.1085 55.327 16.4992 55.2719 15.8981 55.3424C15.2969 55.4128 14.7169 55.6072 14.1947 55.9133C13.6725 56.2194 13.2194 56.6304 12.8642 57.1205C12.509 57.6107 12.2594 58.1691 12.1311 58.7607C11.5699 58.6011 10.9826 58.5554 10.4035 58.6263C9.82449 58.6972 9.26549 58.8832 8.75945 59.1734C8.2534 59.4636 7.81054 59.8522 7.45695 60.3162C7.10337 60.7802 6.84619 61.3102 6.70059 61.8751H4.375V64.0626H7.65625C7.79989 64.0626 7.94214 64.0344 8.07485 63.9794C8.20757 63.9245 8.32816 63.8439 8.42973 63.7423C8.5313 63.6408 8.61187 63.5202 8.66682 63.3875C8.72177 63.2547 8.75004 63.1125 8.75 62.9689C8.75 62.3887 8.98047 61.8323 9.3907 61.4221C9.80094 61.0118 10.3573 60.7814 10.9375 60.7814C11.5177 60.7814 12.0741 61.0118 12.4843 61.4221C12.8945 61.8323 13.125 62.3887 13.125 62.9689H15.3125C15.3132 61.929 14.9417 60.9231 14.2652 60.1333C14.1985 59.815 14.2037 59.4859 14.2803 59.1699C14.357 58.8539 14.5032 58.5589 14.7084 58.3066C14.9135 58.0543 15.1724 57.851 15.4662 57.7114C15.7599 57.5719 16.0811 57.4997 16.4062 57.5001C16.4527 57.5001 16.4978 57.5042 16.543 57.5069C17.0975 57.543 17.6176 57.7882 17.9983 58.1929C18.379 58.5977 18.5918 59.1319 18.5937 59.6876H20.7812C20.7817 58.5946 20.3718 57.5412 19.6328 56.7358C20.0263 56.4905 20.4879 56.3773 20.9503 56.4127C21.4126 56.4481 21.8516 56.6303 22.2031 56.9327C21.9863 57.4597 21.8748 58.024 21.875 58.5939H24.0625C24.0623 58.0733 24.2478 57.5697 24.5857 57.1737C24.9235 56.7777 25.3916 56.5152 25.9058 56.4335C26.4199 56.3517 26.9463 56.4561 27.3903 56.7278C27.8344 56.9995 28.1669 57.4208 28.3281 57.9157C27.0764 58.385 25.9975 59.2248 25.2354 60.323C24.4733 61.4213 24.0641 62.7258 24.0625 64.0626H26.25C26.2498 63.1588 26.5295 62.2772 27.0507 61.5389C27.572 60.8005 28.3091 60.2418 29.1609 59.9395C30.0126 59.6372 30.9371 59.6062 31.8071 59.8507C32.6772 60.0952 33.4502 60.6033 34.0197 61.305C33.3245 61.6798 32.7436 62.2356 32.3385 62.9136C31.9335 63.5916 31.7193 64.3666 31.7187 65.1564H33.9062C33.9062 64.5762 34.1367 64.0198 34.547 63.6096C34.9572 63.1993 35.5136 62.9689 36.0937 62.9689C36.6739 62.9689 37.2303 63.1993 37.6405 63.6096C38.0508 64.0198 38.2812 64.5762 38.2812 65.1564H40.4687C40.469 64.5251 40.3318 63.9013 40.0668 63.3284C40.5297 63.0919 41.0421 62.9686 41.562 62.9689C42.0818 62.9691 42.5942 63.0928 43.0568 63.3298C42.7929 63.9026 42.6562 64.5257 42.6562 65.1564H44.8437C44.8437 64.5762 45.0742 64.0198 45.4844 63.6096C45.8947 63.1993 46.4511 62.9689 47.0312 62.9689C47.6114 62.9689 48.1678 63.1993 48.578 63.6096C48.9883 64.0198 49.2187 64.5762 49.2187 65.1564H51.4062C51.4064 64.5865 51.2949 64.0222 51.0781 63.4952C51.3957 63.2231 51.7846 63.0476 52.1989 62.9898C52.6131 62.932 53.0352 62.9943 53.4152 63.1691C53.7951 63.344 54.1169 63.6241 54.3424 63.9764C54.5679 64.3286 54.6877 64.7381 54.6875 65.1564C54.6875 65.3 54.7157 65.4422 54.7707 65.575C54.8256 65.7077 54.9062 65.8283 55.0078 65.9298C55.1093 66.0314 55.2299 66.112 55.3626 66.1669C55.4954 66.2219 55.6376 66.2501 55.7812 66.2501H64.5312V64.0626H56.7369C56.5739 63.4308 56.2716 62.8434 55.8521 62.3436C55.4326 61.8437 54.9066 61.4441 54.3127 61.1739C53.7187 60.9037 53.0718 60.7699 52.4194 60.7821C51.767 60.7944 51.1256 60.9525 50.5422 61.2449C50.8084 60.8222 51.0481 60.3834 51.2599 59.931L56.7725 48.1185C56.8926 47.8602 56.9074 47.5652 56.8137 47.2962C56.7201 47.0272 56.5253 46.8053 56.2707 46.6774L52.15 44.6171L54.6465 39.8511C55.4647 39.7313 56.2432 39.4201 56.9186 38.9429C57.594 38.4656 58.1472 37.8357 58.5334 37.1044ZM24.0625 54.8081C23.8721 54.9183 23.6902 55.0426 23.5184 55.18C23.0348 54.793 22.4747 54.5129 21.875 54.3583V48.7501C21.875 48.6065 21.8468 48.4642 21.7918 48.3315C21.7369 48.1988 21.6563 48.0782 21.5547 47.9766C21.4532 47.8751 21.3326 47.7945 21.1999 47.7395C21.0671 47.6846 20.9249 47.6563 20.7812 47.6564H18.5937C15.9839 47.6534 13.4819 46.6153 11.6365 44.7699C9.79106 42.9245 8.753 40.4224 8.75 37.8126V36.7189H6.5625V37.8126C6.56216 39.5879 6.95533 41.3412 7.71371 42.9464C8.47209 44.5516 9.57683 45.9687 10.9484 47.0958C9.02803 46.417 7.36498 45.1601 6.1879 43.4978C5.01083 41.8355 4.37751 39.8495 4.375 37.8126V33.4376C4.37538 33.1476 4.49074 32.8697 4.69577 32.6646C4.90081 32.4596 5.17879 32.3442 5.46875 32.3439H13.9453C16.6276 32.3471 19.1991 33.414 21.0957 35.3107C22.9923 37.2073 24.0593 39.7788 24.0625 42.4611V54.8081ZM19.8133 31.648C20.7601 30.4947 21.9514 29.5663 23.3011 28.93C24.6508 28.2937 26.125 27.9654 27.6172 27.9689H36.0937C36.3837 27.9692 36.6617 28.0846 36.8667 28.2896C37.0718 28.4947 37.1871 28.7726 37.1875 29.0626V33.4376C37.185 35.4754 36.5511 37.4623 35.3729 39.125C34.1948 40.7877 32.5303 42.0444 30.6086 42.7222C31.9789 41.5933 33.083 40.1757 33.8421 38.5708C34.6012 36.9658 34.9966 35.213 35 33.4376V32.3439H32.8125V33.4376C32.8079 35.4724 32.175 37.4562 31.0004 39.1178C29.8258 40.7794 28.1667 42.0377 26.25 42.7208V42.4611C26.2484 40.2465 25.6498 38.0733 24.517 36.1703C23.3842 34.2674 21.7593 32.7051 19.8133 31.648ZM54.3402 48.1581L49.2775 59.0068C48.9605 59.6856 48.5669 60.3259 48.1045 60.9153C47.4839 60.7579 46.8362 60.739 46.2074 60.8599C45.5787 60.9809 44.9843 61.2388 44.4664 61.6154C43.5964 61.0692 42.5897 60.78 41.5625 60.7814C41.5133 60.7814 41.4641 60.7841 41.4148 60.7855L44.7098 54.7425L42.7902 53.6952L38.5219 61.5196C37.8657 61.0792 37.1019 60.8259 36.3125 60.7868C36.1424 60.4911 35.9495 60.209 35.7355 59.9433C35.3476 57.6923 35.7551 55.3764 36.8881 53.3931L43.0924 42.5349L45.6695 43.8228L43.601 47.7726C43.4146 48.1279 43.3001 48.5165 43.2639 48.9161C43.2277 49.3157 43.2707 49.7185 43.3902 50.1015C43.5098 50.4845 43.7036 50.8402 43.9607 51.1483C44.2177 51.4564 44.5329 51.7108 44.8883 51.897C45.2437 52.0833 45.6323 52.1977 46.032 52.2337C46.4316 52.2697 46.8344 52.2266 47.2173 52.1069C47.6003 51.9872 47.9559 51.7932 48.2639 51.5361C48.5719 51.2789 48.8262 50.9636 49.0123 50.6081L51.1342 46.5558L54.3402 48.1581ZM47.075 49.5923C47.001 49.7331 46.8899 49.851 46.7538 49.9331C46.6176 50.0153 46.4616 50.0587 46.3025 50.0585C46.1324 50.0584 45.9663 50.0075 45.8254 49.9122C45.6464 49.7941 45.5179 49.6135 45.4648 49.4057C45.4118 49.198 45.4379 48.9779 45.5383 48.7884L50.7363 38.8626C51.0706 39.1151 51.4342 39.3262 51.8191 39.4915C51.9684 39.5561 52.1208 39.6131 52.2758 39.6624L47.075 49.5923ZM52.6805 37.4818C52.293 37.3154 51.9441 37.0708 51.6556 36.7632C51.3672 36.4557 51.1454 36.0919 51.0042 35.6945C50.863 35.2972 50.8054 34.875 50.8351 34.4544C50.8647 34.0338 50.981 33.6239 51.1766 33.2503L59.3428 17.6603C59.7027 16.9806 60.3044 16.4605 61.0291 16.2029C61.7538 15.9452 62.5487 15.9686 63.257 16.2685C63.6445 16.4348 63.9934 16.6794 64.2818 16.987C64.5703 17.2945 64.7921 17.6584 64.9333 18.0557C65.0745 18.453 65.1321 18.8752 65.1024 19.2958C65.0728 19.7164 64.9565 20.1264 64.7609 20.4999L56.5947 36.0899C56.2348 36.7696 55.6331 37.2897 54.9084 37.5474C54.1837 37.805 53.3887 37.7816 52.6805 37.4818H52.6805Z" fill="#00730C"/>
<path d="M245.074 66.858C242.318 66.858 239.51 66.546 236.65 65.922C233.842 65.298 231.398 64.362 229.318 63.114C227.654 62.23 226.614 61.138 226.198 59.838C225.782 58.486 225.834 57.238 226.354 56.094C226.926 54.95 227.836 54.144 229.084 53.676C230.332 53.156 231.762 53.286 233.374 54.066C235.402 55.054 237.326 55.756 239.146 56.172C240.966 56.588 242.786 56.796 244.606 56.796C250.95 56.796 254.122 54.43 254.122 49.698C254.122 45.33 251.158 43.146 245.23 43.146H240.628C238.912 43.146 237.586 42.73 236.65 41.898C235.766 41.014 235.324 39.818 235.324 38.31C235.324 36.75 235.766 35.554 236.65 34.722C237.586 33.838 238.912 33.396 240.628 33.396H244.06C246.66 33.396 248.714 32.798 250.222 31.602C251.73 30.406 252.484 28.742 252.484 26.61C252.484 22.346 249.702 20.214 244.138 20.214C242.422 20.214 240.758 20.422 239.146 20.838C237.586 21.202 235.87 21.878 233.998 22.866C232.542 23.594 231.242 23.724 230.098 23.256C228.954 22.788 228.096 21.982 227.524 20.838C227.004 19.694 226.9 18.498 227.212 17.25C227.524 16.002 228.434 14.962 229.942 14.13C234.466 11.478 239.562 10.152 245.23 10.152C251.158 10.152 255.786 11.478 259.114 14.13C262.442 16.782 264.106 20.422 264.106 25.05C264.106 27.91 263.378 30.432 261.922 32.616C260.466 34.8 258.438 36.386 255.838 37.374C258.958 38.258 261.376 39.896 263.092 42.288C264.86 44.628 265.744 47.462 265.744 50.79C265.744 55.782 263.898 59.708 260.206 62.568C256.514 65.428 251.47 66.858 245.074 66.858Z" fill="#E3E3E3"/>
</svg>
