<svg width="270" height="80" viewBox="0 0 270 80" fill="none" xmlns="http://www.w3.org/2000/svg">
<path d="M65.625 58.5938H60.0009C59.512 56.7114 57.8145 55.3125 55.7812 55.3125V47.6278C56.6978 48.3223 57.8266 48.75 59.0625 48.75C62.078 48.75 64.5312 46.2967 64.5312 43.2812C64.5312 42.9389 64.4963 42.5944 64.4263 42.2498C65.8602 41.2337 66.7188 39.6041 66.7188 37.8125C66.7188 36.2692 66.08 34.8408 64.9666 33.8181C65.3953 33.0262 65.625 32.1436 65.625 31.25C65.625 29.8927 65.1153 28.6009 64.2053 27.6012C64.4219 27.0095 64.5312 26.4003 64.5312 25.7812C64.5312 22.9813 62.417 20.6669 59.7012 20.3497C58.8536 18.3602 56.8958 17.0312 54.6875 17.0312C52.4792 17.0312 50.5214 18.3602 49.6738 20.3497C46.958 20.6669 44.8438 22.9813 44.8438 25.7812C44.8438 26.4003 44.9531 27.0095 45.1697 27.6012C44.5966 28.2302 44.205 28.9816 43.9764 29.7855C42.6377 28.6414 41.0638 27.9688 39.375 27.9688C37.2925 27.9688 35.3806 28.9772 33.8767 30.6539C33.7367 29.1883 33.0848 27.7883 32.0392 26.7427L28.8903 23.5938H33.9062V21.3909C33.9062 20.365 33.3955 19.3861 32.5402 18.7736C28.5841 15.9386 25.3925 12.1159 23.3133 7.71687C22.8397 6.715 21.8684 6.09375 20.7812 6.09375C19.6941 6.09375 18.7228 6.715 18.2492 7.71687C16.1711 12.1159 12.9795 15.9397 9.02125 18.7736C8.16703 19.3861 7.65625 20.365 7.65625 21.3909V23.5938H12.6722L9.52328 26.7427C8.33656 27.9294 7.65625 29.5722 7.65625 31.25V32.3438H12.6722L9.52328 35.4927C8.33656 36.6794 7.65625 38.3222 7.65625 40V41.0938H19.6875V45.4688C16.8875 45.4688 14.5731 47.583 14.2559 50.2988C12.2664 51.1464 10.9375 53.1042 10.9375 55.3125C10.9375 56.5211 11.3411 57.6827 12.028 58.5938C10.22 58.5959 8.75 60.067 8.75 61.875C8.75 62.4787 8.26 62.9688 7.65625 62.9688H4.375C2.56594 62.9688 1.09375 64.4409 1.09375 66.25C1.09375 68.0591 2.56594 69.5312 4.375 69.5312H10.045C9.9225 69.8747 9.84375 70.24 9.84375 70.625C9.84375 72.4341 11.3159 73.9062 13.125 73.9062H55.7812C57.5903 73.9062 59.0625 72.4341 59.0625 70.625C59.0625 68.8159 57.5903 67.3438 55.7812 67.3438H53.5938H52.5C51.8963 67.3438 51.4062 66.8537 51.4062 66.25C51.4062 65.6463 51.8963 65.1562 52.5 65.1562H65.625C67.4341 65.1562 68.9062 63.6841 68.9062 61.875C68.9062 60.0659 67.4341 58.5938 65.625 58.5938ZM57.6516 58.5938H42.9789C43.237 58.1606 43.6275 57.8084 44.1295 57.6334L44.8886 57.3688L44.8623 56.5648C44.8602 56.4948 44.8525 56.427 44.8438 56.4062C44.8438 54.5972 46.3159 53.125 48.125 53.125C49.2931 53.125 50.3825 53.7703 50.9688 54.8083L51.228 55.2687L51.7508 55.3508C52.593 55.4842 53.282 56.1044 53.5062 56.9323L53.8278 58.1202L54.9697 57.6608C56.0219 57.2408 57.1255 57.7286 57.6516 58.5938ZM40.4688 51.9273C42.9078 51.5062 45.033 49.7016 46.4231 47.1006C47.4348 48.1244 48.8272 48.75 50.3125 48.75C51.5484 48.75 52.6772 48.3223 53.5938 47.6278V53.7441C53.2831 53.5625 52.9572 53.405 52.605 53.3044C51.5878 51.8322 49.9144 50.9375 48.125 50.9375C45.2802 50.9375 42.9362 53.1206 42.6792 55.8988C41.6511 56.485 40.9084 57.4617 40.612 58.5938H40.4688V51.9273ZM47.1723 28.7114L47.8822 28.1383L47.4458 27.3377C47.1713 26.8313 47.0312 26.3073 47.0312 25.7812C47.0312 23.9722 48.5034 22.5 50.2414 22.4967L51.3034 22.5514L51.5222 21.6917C51.893 20.2359 53.1956 19.2188 54.6875 19.2188C56.1794 19.2188 57.482 20.2359 57.8539 21.6917L58.0727 22.5514L58.9608 22.5142C59.0188 22.512 59.0767 22.5055 59.0625 22.5C60.8716 22.5 62.3438 23.9722 62.3438 25.7812C62.3438 26.3073 62.2037 26.8313 61.9292 27.3366L61.4928 28.1372L62.2027 28.7103C62.988 29.3447 63.4375 30.27 63.4375 31.25C63.4375 32.2213 63.0055 32.9322 62.6434 33.3587L61.8067 34.3442L62.918 35.0048C63.9275 35.6086 64.5312 36.6575 64.5312 37.8125C64.5312 39.0714 63.8181 40.2002 62.6675 40.7547L61.7673 41.19L62.1206 42.1252C62.2694 42.5189 62.3438 42.9072 62.3438 43.2812C62.3438 45.0903 60.8716 46.5625 59.0625 46.5625C57.2534 46.5625 55.7812 45.0903 55.7812 43.2812V40.385L59.9167 35.2148L58.2072 33.8477L55.7812 36.8806V25.7812H53.5938V32.5056L51.1667 29.4727L49.4572 30.8398L53.5938 36.01V43.2812C53.5938 45.0903 52.1216 46.5625 50.3125 46.5625C49.0842 46.5625 47.9588 45.8548 47.4009 44.7786C47.8647 43.3119 48.125 41.6975 48.125 40C48.125 36.9605 47.2948 34.1889 45.9375 32.0692V31.25C45.9375 30.27 46.387 29.3447 47.1723 28.7114ZM39.375 30.1562C42.9942 30.1562 45.9375 34.5717 45.9375 40C45.9375 44.8683 43.5673 48.9108 40.4688 49.6961V41.4788L44.6042 36.3086L42.8947 34.9414L40.4688 37.9744V34.5312H38.2812V42.9498L35.91 39.393L34.09 40.6059L38.2812 46.8939V49.6961C35.1827 48.9119 32.8125 44.8683 32.8125 40C32.8125 34.5717 35.7558 30.1562 39.375 30.1562ZM32.6309 32.3438C32.1628 33.1214 31.7734 33.9877 31.4584 34.9108L28.8903 32.3438H32.6309ZM11.0698 37.0392L15.7653 32.3438H17.5V30.1562H9.99141C10.1828 29.4552 10.5536 28.8066 11.0698 28.2892L15.7653 23.5938H17.5V21.4062H9.84375V21.3909C9.84375 21.0639 10.0078 20.7577 10.2955 20.5509C14.5556 17.5016 17.9889 13.3858 20.2267 8.65203C20.4422 8.19266 21.1192 8.19266 21.3358 8.65203C23.5736 13.3858 27.008 17.5016 31.2659 20.5509C31.5547 20.7577 31.7188 21.065 31.7188 21.3909L24.0625 21.4062V23.5938H25.7972L30.4927 28.2892C31.01 28.8066 31.3808 29.4552 31.5711 30.1562H24.0625V32.3438H25.7972L30.4927 37.0392C30.6152 37.1617 30.7267 37.2908 30.8317 37.4253C30.7552 37.9088 30.6983 38.402 30.6655 38.9062H9.99141C10.1828 38.2052 10.5525 37.5566 11.0698 37.0392ZM21.875 41.0938H30.6655C31.0363 46.7178 34.2322 51.2284 38.2812 51.9273V58.5938H33.8887C34.5964 57.6531 35 56.508 35 55.3125C35 52.297 32.5467 49.8438 29.5312 49.8438C29.1889 49.8438 28.8433 49.8787 28.4998 49.9487C27.4837 48.5148 25.8552 47.6562 24.0625 47.6562C24.0548 47.6562 24.0461 47.6562 24.0395 47.6562C23.4719 46.9005 22.7205 46.3186 21.875 45.9434V41.0938ZM15.598 52.1461L16.4577 51.9273L16.4205 51.0392C16.4183 50.9867 16.4128 50.9342 16.4073 50.9342C16.4073 50.9342 16.4062 50.9353 16.4062 50.9364C16.4062 49.1273 17.8784 47.6552 19.6875 47.6552C20.8589 47.6552 21.9483 48.3016 22.5334 49.3417L22.9939 49.9805L23.7344 49.8766C23.8416 49.8634 23.9498 49.8438 24.0625 49.8438C25.3225 49.8438 26.4502 50.5569 27.0047 51.7064L27.44 52.6098L28.3773 52.2533C30.6283 51.4002 32.8136 53.1261 32.8125 55.3125C32.8125 56.2531 32.4078 57.1511 31.7002 57.7734L31.0669 58.5938H15.003L14.2362 57.7734C13.5297 57.1511 13.125 56.2531 13.125 55.3125C13.125 53.8206 14.1422 52.518 15.598 52.1461ZM65.625 62.9688H52.5C50.6909 62.9688 49.2188 64.4409 49.2188 66.25C49.2188 66.635 49.2975 67.0003 49.42 67.3438H47.0312V69.5312H52.5H53.5938H55.7812C56.385 69.5312 56.875 70.0213 56.875 70.625C56.875 71.2288 56.385 71.7188 55.7812 71.7188H13.125C12.5212 71.7188 12.0312 71.2288 12.0312 70.625C12.0312 70.0213 12.5212 69.5312 13.125 69.5312H16.4062H19.6875V67.3438H16.4062H13.125H4.375C3.77125 67.3438 3.28125 66.8537 3.28125 66.25C3.28125 65.6463 3.77125 65.1562 4.375 65.1562H7.65625C9.46531 65.1562 10.9375 63.6841 10.9375 61.875C10.9375 61.2713 11.4275 60.7812 12.0312 60.7812H65.625C66.2288 60.7812 66.7188 61.2713 66.7188 61.875C66.7188 62.4787 66.2288 62.9688 65.625 62.9688Z" fill="#00730C"/>
<path d="M26.25 65.7031C26.25 64.1948 25.0239 62.9688 23.5156 62.9688H19.6875V65.1562H23.5156C23.8164 65.1562 24.0625 65.4023 24.0625 65.7031C24.0625 67.2114 25.2886 68.4375 26.7969 68.4375H30.625V66.25H26.7969C26.4961 66.25 26.25 66.0039 26.25 65.7031Z" fill="#00730C"/>
<path d="M254.98 66.702C253.056 66.702 251.574 66.182 250.534 65.142C249.494 64.102 248.974 62.594 248.974 60.618V56.172H231.502C229.578 56.172 228.044 55.756 226.9 54.924C225.756 54.04 225.184 52.714 225.184 50.946C225.184 49.906 225.418 48.866 225.886 47.826C226.354 46.734 227.186 45.356 228.382 43.692L248.584 14.286C249.468 12.934 250.43 11.946 251.47 11.322C252.562 10.646 253.836 10.308 255.292 10.308C257.008 10.308 258.36 10.828 259.348 11.868C260.336 12.856 260.83 14.364 260.83 16.392V46.656H263.716C267.2 46.656 268.942 48.242 268.942 51.414C268.942 54.586 267.2 56.172 263.716 56.172H260.83V60.618C260.83 62.594 260.31 64.102 259.27 65.142C258.282 66.182 256.852 66.702 254.98 66.702ZM248.974 46.656V28.482L236.65 46.656H248.974Z" fill="#E3E3E3"/>
</svg>
