<svg width="270" height="80" viewBox="0 0 270 80" fill="none" xmlns="http://www.w3.org/2000/svg">
<g clip-path="url(#clip0_5341_10425)">
<path d="M68.9751 70.7857H68.0421C67.5738 65.7351 63.681 61.625 58.6588 60.8954C58.4969 58.6551 57.7375 56.5237 56.4381 54.6828C56.1113 54.2203 55.472 54.1097 55.0095 54.436C54.547 54.7629 54.4365 55.4021 54.7628 55.8646C55.9917 57.6057 56.6411 59.6591 56.6411 61.8039V61.8236C56.6411 62.3657 57.0635 62.8143 57.6051 62.8469C61.9891 63.1091 65.4931 66.5116 65.9812 70.7857H4.01505C4.50317 66.5116 8.00713 63.1091 12.3912 62.8469C12.9327 62.8143 13.3552 62.3657 13.3552 61.8236V61.8039C13.3552 56.1183 17.9807 51.4928 23.6662 51.4928C23.7869 51.4928 23.9071 51.4955 24.0278 51.4998C24.0321 51.4998 24.0363 51.5008 24.0411 51.5008C24.0422 51.5008 24.0433 51.5003 24.0443 51.5003C24.3584 51.5121 24.6697 51.5372 24.9747 51.5772C25.348 51.6263 25.7186 51.4661 25.9397 51.1601C28.1763 48.0556 31.7914 46.2025 35.6104 46.2025C39.3889 46.2025 42.9831 48.0252 45.2245 51.0784C45.4179 51.3412 45.7249 51.4971 46.0513 51.4971C46.1041 51.4971 46.157 51.4955 46.2109 51.4944C46.2515 51.4939 46.2921 51.4928 46.3338 51.4928C48.1554 51.4928 49.9499 51.9767 51.5232 52.8921C52.0124 53.1767 52.6399 53.0112 52.9246 52.522C53.2098 52.0328 53.0437 51.4052 52.5545 51.1201C50.7323 50.06 48.6633 49.4826 46.5565 49.4447C44.6777 47.0804 42.0843 45.403 39.2132 44.6307C39.179 41.4595 38.8762 38.3689 38.3282 35.6468C38.2166 35.0919 37.6762 34.732 37.1213 34.8436C36.5659 34.9557 36.2064 35.4962 36.3186 36.0511C36.8174 38.5323 37.1042 41.3415 37.1576 44.2398C36.646 44.1821 36.1295 44.1522 35.6104 44.1522C31.3348 44.1522 27.2775 46.1336 24.6382 49.481C24.557 49.4746 24.4753 49.4714 24.3936 49.4666C17.1048 44.2638 12.968 38.8394 13.0369 34.5563C13.0721 32.373 14.2022 30.4114 16.3972 28.7126L17.1465 30.0894C17.4306 30.6192 17.9053 31.0048 18.4837 31.1757C18.6952 31.2382 18.9115 31.2691 19.1262 31.2691C19.4931 31.2691 19.8568 31.1789 20.189 31.001C20.1911 31 20.1927 30.9989 20.1949 30.9978L23.0836 29.4272C24.1709 28.8338 24.5731 27.4672 23.9813 26.383L23.2748 25.0842C25.7763 24.2821 27.9633 24.2826 29.7892 25.088C32.0301 26.0765 33.8133 28.2907 35.0892 31.6691C35.2441 32.0793 35.6339 32.3319 36.0484 32.3319C36.1685 32.3319 36.2908 32.3111 36.4104 32.2657C36.9397 32.066 37.2073 31.4742 37.007 30.9444C35.5293 27.0325 33.3791 24.4311 30.6165 23.2123C28.2233 22.1565 25.4222 22.1747 22.2809 23.2572L21.483 21.7901C21.9049 20.3439 21.7436 18.8251 21.028 17.5123L17.0204 10.137C16.3032 8.81629 15.109 7.85231 13.6591 7.42346C12.2086 6.99408 10.6822 7.15376 9.36043 7.87261C8.03864 8.58985 7.07413 9.78453 6.64474 11.2361C6.2159 12.6871 6.37505 14.2135 7.09229 15.5342L11.0999 22.9058C11.8192 24.2281 13.0145 25.1926 14.4644 25.622C14.5611 25.6509 14.6588 25.6738 14.7565 25.6973L15.406 26.8915C12.5204 29.0261 11.0342 31.5896 10.9872 34.5231C10.8926 40.4031 16.6434 46.0823 21.2518 49.6802C15.877 50.7489 11.7455 55.3135 11.338 60.8954C6.31523 61.625 2.42249 65.7351 1.95412 70.7857H1.02486C0.458756 70.7857 0 71.2449 0 71.8111C0 72.3772 0.458756 72.8359 1.02486 72.8359H68.9751C69.5412 72.8359 70 72.3772 70 71.8111C70 71.2449 69.5412 70.7857 68.9751 70.7857ZM20.3145 23.9328L22.181 27.3641C22.2312 27.4565 22.1949 27.5772 22.1025 27.6274L19.2191 29.1949C19.155 29.2285 19.0958 29.2189 19.0653 29.2098C19.0306 29.1997 18.9836 29.1762 18.951 29.1153L17.1251 25.7603C17.6923 25.6525 18.2445 25.4565 18.7646 25.1734C19.3596 24.8498 19.8808 24.4289 20.3145 23.9328ZM15.0465 23.6561C14.121 23.3822 13.3589 22.7675 12.9012 21.9263L8.8942 14.5553C8.43811 13.7152 8.33717 12.7432 8.61115 11.8177C8.88458 10.8916 9.49821 10.1306 10.3383 9.67452C10.3388 9.67452 10.3394 9.67452 10.3399 9.67398C10.8702 9.38559 11.4534 9.23873 12.0446 9.23873C12.3891 9.23873 12.7367 9.28839 13.078 9.38933C14.003 9.6633 14.7635 10.2764 15.2196 11.1159L19.2277 18.4923C19.6843 19.3303 19.7858 20.3012 19.5123 21.2267C19.4846 21.3202 19.453 21.411 19.4183 21.5012C19.4167 21.506 19.4135 21.5108 19.4114 21.5162C19.4018 21.5413 19.3922 21.568 19.382 21.5941C19.068 22.3541 18.5115 22.9774 17.7852 23.372C17.1155 23.7363 16.3625 23.8735 15.6158 23.7763C15.6009 23.7742 15.5859 23.7715 15.5715 23.7694C15.5656 23.7683 15.5592 23.7688 15.5528 23.7678C15.3835 23.7427 15.2142 23.7058 15.0465 23.6561Z" fill="#00730C"/>
<path d="M28.3126 58.5938C25.9814 57.2785 22.988 57.3543 21.1952 58.7738C20.0219 59.7031 19.5797 61.0575 19.9775 62.4957C19.9855 62.532 19.9957 62.5678 20.008 62.6035C20.4411 64.0273 21.5509 64.994 22.9837 65.1921C23.168 65.2178 23.3538 65.23 23.5402 65.23C25.4885 65.23 27.536 63.8602 28.9983 61.5365C29.0079 61.5205 29.0175 61.505 29.0266 61.4884C29.6578 60.3541 29.4068 59.2812 28.3553 58.6195C28.3414 58.6104 28.327 58.6019 28.3126 58.5938ZM27.2466 60.47C25.8532 62.6698 24.2318 63.2957 23.2652 63.1611C22.619 63.0719 22.1714 62.6724 21.969 62.0059C21.9664 61.9958 21.9637 61.9862 21.961 61.976C21.7714 61.3229 21.9375 60.8016 22.4678 60.3813C23.4532 59.6011 25.5184 59.3843 27.2808 60.3658C27.285 60.3685 27.2893 60.3712 27.293 60.3744C27.2824 60.4 27.2674 60.4315 27.2466 60.47Z" fill="#00730C"/>
<path d="M40.457 55.26C40.6108 53.9767 39.9721 53.08 38.7475 52.8616C38.7288 52.8578 38.7101 52.8552 38.6909 52.853C36.0339 52.5294 33.2964 53.7433 32.1829 55.7391C31.4544 57.0438 31.5617 58.4622 32.4755 59.6388C32.4947 59.666 32.515 59.6922 32.5369 59.7178C33.2713 60.6193 34.2806 61.1058 35.3546 61.1058C35.6612 61.1058 35.9725 61.0663 36.2844 60.9857C38.3443 60.4505 39.9406 58.2769 40.4495 55.3113C40.4527 55.2942 40.4554 55.2771 40.457 55.26ZM38.4244 54.9925C37.9758 57.5586 36.7154 58.7554 35.769 59.0011C35.141 59.164 34.5786 58.9691 34.1386 58.4382C34.1306 58.427 34.122 58.4158 34.1135 58.4051C33.6894 57.8742 33.6435 57.329 33.973 56.7383C34.585 55.6424 36.4094 54.6539 38.4116 54.8846C38.4185 54.8857 38.4249 54.8873 38.4308 54.8883C38.4302 54.9161 38.4286 54.9503 38.4244 54.9925Z" fill="#00730C"/>
<path d="M39.9363 67.176C40.6723 68.0882 41.6886 68.5817 42.7695 68.5817C43.0771 68.5817 43.3896 68.5416 43.7025 68.4599C45.7624 67.9237 47.3571 65.748 47.8639 62.7829C47.8666 62.7663 47.8692 62.7498 47.8714 62.7327C48.0262 61.4461 47.387 60.5505 46.1613 60.3369C46.1442 60.3342 46.1271 60.3316 46.11 60.3294C43.452 60.0031 40.7145 61.2165 39.5983 63.2139C38.8661 64.525 38.9766 65.9498 39.9011 67.1296C39.9123 67.1456 39.924 67.1611 39.9363 67.176ZM41.3879 64.2136C42.0015 63.1156 43.8296 62.1265 45.8313 62.361C45.8361 62.3615 45.8403 62.3626 45.8446 62.3636C45.8441 62.3903 45.8425 62.424 45.8382 62.4651C45.3917 65.0312 44.1319 66.2297 43.1855 66.4759C42.5607 66.6388 41.9994 66.447 41.5593 65.9221C41.5449 65.9028 41.5305 65.8841 41.515 65.866C41.1027 65.3399 41.0611 64.7995 41.3879 64.2136Z" fill="#00730C"/>
</g>
<path d="M233.764 66C231.788 66 230.358 65.558 229.474 64.674C228.59 63.738 228.148 62.386 228.148 60.618C228.148 59.474 228.434 58.408 229.006 57.42C229.578 56.432 230.358 55.418 231.346 54.378L246.01 38.934C248.194 36.594 249.754 34.514 250.69 32.694C251.678 30.874 252.172 29.054 252.172 27.234C252.172 22.554 249.286 20.214 243.514 20.214C242.006 20.214 240.446 20.422 238.834 20.838C237.274 21.254 235.636 21.982 233.92 23.022C232.516 23.854 231.216 24.036 230.02 23.568C228.876 23.1 228.018 22.294 227.446 21.15C226.926 20.006 226.796 18.81 227.056 17.562C227.368 16.262 228.226 15.196 229.63 14.364C231.918 12.96 234.414 11.92 237.118 11.244C239.822 10.516 242.5 10.152 245.152 10.152C251.288 10.152 255.968 11.53 259.192 14.286C262.468 16.99 264.106 20.864 264.106 25.908C264.106 29.236 263.326 32.434 261.766 35.502C260.258 38.518 257.762 41.794 254.278 45.33L243.67 56.094H261.766C265.146 56.094 266.836 57.732 266.836 61.008C266.836 64.336 265.146 66 261.766 66H233.764Z" fill="#E3E3E3"/>
<defs>
<clipPath id="clip0_5341_10425">
<rect width="70" height="70" fill="white" transform="translate(0 5)"/>
</clipPath>
</defs>
</svg>
