<svg width="39" height="56" viewBox="0 0 39 56" fill="none" xmlns="http://www.w3.org/2000/svg">
<path d="M6.246 56C2.814 56 1.098 54.336 1.098 51.008C1.098 47.732 2.814 46.094 6.246 46.094H14.124V14.426L8.43 17.858C6.922 18.742 5.57 18.976 4.374 18.56C3.178 18.144 2.268 17.364 1.644 16.22C1.02 15.076 0.838 13.854 1.098 12.554C1.358 11.202 2.216 10.058 3.672 9.122L14.514 2.57C15.606 1.894 16.698 1.348 17.79 0.931998C18.934 0.515997 20.052 0.307996 21.144 0.307996C22.704 0.307996 23.926 0.723997 24.81 1.556C25.746 2.388 26.214 3.61 26.214 5.222V46.094H33.312C36.692 46.094 38.382 47.732 38.382 51.008C38.382 54.336 36.692 56 33.312 56H6.246Z" fill="#E3E3E3"/>
</svg>
